<?xml version="1.0" standalone="no"?>
<!DOCTYPE svg PUBLIC "-//W3C//DTD SVG 20010904//EN"
 "http://www.w3.org/TR/2001/REC-SVG-20010904/DTD/svg10.dtd">
<svg version="1.0" xmlns="http://www.w3.org/2000/svg"
 width="894.000000pt" height="894.000000pt" viewBox="0 0 894.000000 894.000000"
 preserveAspectRatio="xMidYMid meet">
<metadata>
Created by potrace 1.11, written by Peter Selinger 2001-2013
</metadata>
<g transform="translate(0.000000,894.000000) scale(0.100000,-0.100000)"
fill="#000000" stroke="none">
<path d="M2770 6500 c0 -11 -16 -46 -36 -76 -31 -49 -184 -356 -184 -370 0
-16 -45 -100 -60 -113 -16 -14 -81 -175 -133 -331 -14 -41 -18 -45 -53 -48
-78 -7 -353 -64 -499 -103 -371 -101 -549 -158 -720 -232 -136 -58 -174 -76
-377 -178 l-198 -99 -85 -1 -85 -1 0 -29 c0 -16 5 -29 13 -29 6 -1 -21 -18
-62 -38 -41 -20 -79 -44 -84 -53 -17 -27 0 -63 42 -89 22 -14 41 -28 41 -31 0
-3 28 -28 63 -55 78 -61 152 -136 195 -197 l33 -47 -53 -1 c-29 0 -82 0 -118
0 -86 0 -336 -26 -358 -38 -9 -5 -26 -18 -36 -30 -31 -34 -7 -71 93 -143 47
-34 88 -64 91 -67 3 -4 28 -21 55 -40 28 -19 82 -58 120 -86 100 -73 225 -151
335 -210 76 -40 96 -55 97 -72 0 -13 1 -30 2 -38 1 -10 11 -15 31 -15 25 0 30
4 30 25 l0 24 95 -33 c94 -33 202 -92 272 -147 49 -40 316 -122 685 -213 269
-66 712 -146 808 -146 25 0 32 -9 80 -117 82 -184 247 -510 288 -572 35 -53
39 -56 84 -59 43 -3 48 -1 61 25 8 15 24 75 36 133 22 111 83 339 107 403 19
51 18 106 -5 142 l-18 31 126 12 c163 16 341 43 571 86 178 34 278 56 571 126
l136 32 62 -23 c55 -19 72 -33 139 -108 212 -238 356 -362 632 -548 135 -91
176 -111 198 -97 30 19 25 43 -20 98 -24 29 -77 95 -119 147 -84 103 -243 349
-290 446 -16 34 -27 71 -25 85 3 12 5 26 5 30 1 5 17 26 37 47 57 64 131 82
221 53 31 -10 33 -9 53 32 16 34 28 45 59 54 54 17 62 16 125 -18 58 -30 85
-30 87 -1 4 59 -8 54 139 55 l135 1 3 57 3 57 44 6 c38 6 49 3 89 -25 64 -43
87 -38 107 25 15 47 18 51 58 59 41 9 43 8 84 -32 45 -44 86 -55 88 -24 1 9 2
22 4 27 1 6 3 19 3 29 2 15 13 5 42 -35 23 -30 50 -65 60 -79 11 -14 26 -34
34 -45 13 -18 27 -20 138 -21 l125 -2 0 137 c1 75 2 142 2 150 1 10 10 6 30
-13 29 -28 29 -30 29 -130 0 -55 0 -110 1 -122 1 -19 7 -20 139 -20 l137 1 2
110 c1 61 2 138 3 172 0 73 10 82 99 90 76 7 94 -9 182 -165 80 -142 218 -356
289 -447 25 -33 70 -91 100 -130 75 -98 125 -153 206 -227 210 -189 417 -307
549 -310 60 -2 85 12 85 48 0 24 -6 31 -65 79 -61 49 -217 265 -285 395 -18
36 -73 134 -122 219 -48 85 -88 158 -88 162 0 4 10 5 21 2 18 -5 20 -3 11 13
-6 10 -27 37 -46 59 -20 22 -36 46 -36 53 0 6 -4 12 -9 12 -15 0 -57 99 -73
170 -11 51 -12 85 -5 158 8 69 7 111 -3 162 -20 106 -10 193 32 276 79 155
222 454 249 522 42 105 79 175 149 282 83 126 182 252 232 294 56 48 50 71
-20 71 -44 -1 -72 -11 -169 -60 -177 -90 -281 -164 -402 -283 -203 -201 -376
-448 -447 -639 -14 -37 -44 -101 -66 -140 l-42 -73 -27 33 c-16 17 -28 35 -29
38 0 3 -10 17 -21 30 -12 13 -46 58 -77 99 -30 41 -58 77 -62 80 -3 3 -17 21
-30 40 -13 19 -38 52 -55 72 l-30 38 -137 0 c-136 0 -138 0 -139 -22 0 -13 -1
-143 -1 -289 l-1 -267 -31 9 c-17 5 -31 9 -31 9 0 0 0 126 1 280 l1 280 -142
0 -142 0 1 -236 c1 -182 -2 -238 -12 -241 -18 -7 -38 13 -62 63 -24 48 -39 53
-88 28 -26 -12 -41 -13 -89 -4 -66 12 -77 20 -96 75 -10 30 -20 41 -38 43 -17
2 -52 40 -127 138 l-104 135 -131 -3 -132 -3 0 -52 c1 -29 -2 -53 -5 -53 -7 0
-50 83 -50 97 0 9 -37 13 -137 15 l-138 3 -3 27 c-5 40 -26 53 -61 38 -70 -29
-211 4 -211 48 0 10 -6 27 -14 37 -12 16 -17 17 -44 6 -31 -13 -72 -7 -72 10
0 5 9 9 20 9 33 0 37 30 7 54 -47 38 -35 69 77 214 161 208 415 420 699 584
92 54 111 82 62 94 -66 16 -480 -158 -1051 -444 -221 -111 -413 -204 -427
-207 -14 -4 -50 0 -80 9 -29 8 -85 22 -124 30 -60 13 -77 22 -115 59 -25 24
-47 50 -50 57 -3 10 -27 14 -84 15 -60 1 -86 6 -108 21 -21 13 -50 19 -93 20
-35 1 -69 7 -76 12 -7 6 -36 8 -68 5 -42 -4 -65 0 -100 15 -24 11 -68 22 -98
25 -44 3 -59 10 -75 30 -12 14 -34 29 -51 33 -37 8 -71 38 -79 68 -3 12 -23
32 -45 44 -44 25 -101 88 -101 111 0 8 -15 30 -32 48 -19 19 -37 52 -43 76 -8
34 -15 43 -35 45 -28 3 -100 77 -100 102 0 9 -13 21 -29 27 -16 6 -42 30 -58
54 -15 24 -32 46 -38 48 -22 9 -76 77 -83 106 -10 36 -42 48 -42 15z m4832
-2173 c-13 -15 -29 -18 -87 -16 -38 1 -74 5 -80 10 -7 5 -12 269 -6 309 1 2
43 -61 95 -140 89 -136 94 -146 78 -163z"/>
</g>
</svg>
